# xmcd
#
# Track frame offsets:
#	150
#	21010
#	39745
#	58900
#	78900
#	101915
#	117085
#	133980
#	151980
#	168540
#	188545
#
# Disc length: 2721 seconds
#
# Revision: 1
# Processed by: cddbd v1.5.2PL0 Copyright (c) Steve Scherf et al.
# Submitted via: audiograbber 1.83.01
#
DISCID=900a9f0b
DTITLE=Sonora Pancho Vargas - 33 Boleros Inesquecíveis
DYEAR=1997
DGENRE=
TTITLE0=Sonora Pancho Vargas - Maria La Ô and Cubanacan and Cielito Lindo
TTITLE1=Sonora Pancho Vargas - Palabras De Mujer and Maria Bonita and Farolito
TTITLE2=Sonora Pancho Vargas - Noche De Lluvia and Llanto De Luna and Para Que Reco
TTITLE2=rdar
TTITLE3=Sonora Pancho Vargas - Condicion and Tu, Solo Tu and Ella
TTITLE4=Sonora Pancho Vargas - Contigo and Somos Novios and Três Palabras
TTITLE5=Sonora Pancho Vargas - Espinita and Corazon De Melon and Un Poquito De Tu A
TTITLE5=mor
TTITLE6=Sonora Pancho Vargas - Amor and Volver A Empezar and Prisionero Del Mar
TTITLE7=Sonora Pancho Vargas - Regalame Esta Noche and Se Muy Bien Que Vendras and 
TTITLE7=Camino Verde
TTITLE8=Sonora Pancho Vargas - Escandalo and Total and Perfume De Gardenia
TTITLE9=Sonora Pancho Vargas - Vaya Com Dios and Ruega Por Nosotros and Adios Mariq
TTITLE9=uita Linda
TTITLE10=Sonora Pancho Vargas - Para Vigo Me Voy and Paran Pan Pan and Ay Cosita Li
TTITLE10=nda
EXTD=
EXTT0=
EXTT1=
EXTT2=
EXTT3=
EXTT4=
EXTT5=
EXTT6=
EXTT7=
EXTT8=
EXTT9=
EXTT10=
PLAYORDER=
